<?xml version="1.0" encoding="UTF-8"?>
<svg xmlns="http://www.w3.org/2000/svg" xmlns:xlink="http://www.w3.org/1999/xlink" width="40px" height="40px" viewBox="0 0 40 40" version="1.1">
<g id="surface1">
<path style=" stroke:none;fill-rule:nonzero;fill:rgb(0%,0%,0%);fill-opacity:1;" d="M 23.691406 4.050781 C 23.453125 4.136719 23.242188 4.300781 23.085938 4.519531 C 22.785156 4.9375 22.742188 5.175781 22.695312 6.796875 C 22.667969 7.726562 22.636719 8.21875 22.597656 8.378906 C 22.554688 8.5625 22.542969 8.914062 22.539062 9.949219 L 22.539062 11.289062 L 22.726562 11.257812 C 22.828125 11.242188 23.183594 11.230469 23.515625 11.234375 C 24.070312 11.234375 24.140625 11.242188 24.375 11.335938 C 24.800781 11.503906 25.023438 11.628906 25.355469 11.898438 C 25.53125 12.039062 25.679688 12.144531 25.691406 12.132812 C 25.703125 12.121094 25.714844 10.632812 25.714844 8.820312 C 25.71875 5.242188 25.722656 5.269531 25.5 4.832031 C 25.339844 4.511719 25.113281 4.28125 24.8125 4.132812 C 24.601562 4.027344 24.507812 4.007812 24.222656 3.996094 C 23.972656 3.984375 23.835938 4 23.691406 4.050781 Z M 24.871094 7.792969 C 24.980469 7.871094 25.054688 8.121094 25.003906 8.25 C 24.960938 8.367188 24.816406 8.5 24.675781 8.550781 C 24.527344 8.605469 23.960938 8.601562 23.789062 8.542969 C 23.492188 8.441406 23.382812 8.058594 23.589844 7.847656 L 23.703125 7.734375 L 24.246094 7.734375 C 24.667969 7.734375 24.804688 7.746094 24.871094 7.792969 Z M 24.871094 7.792969 "/>
<path style=" stroke:none;fill-rule:nonzero;fill:rgb(0%,0%,0%);fill-opacity:1;" d="M 12.710938 4.0625 C 12.179688 4.171875 11.738281 4.632812 11.574219 5.234375 C 11.511719 5.46875 11.507812 5.871094 11.503906 10.722656 L 11.503906 15.957031 L 11.632812 16.894531 C 11.703125 17.410156 11.804688 17.996094 11.855469 18.195312 C 12.03125 18.855469 12.339844 19.375 13.027344 20.175781 C 13.386719 20.59375 13.636719 20.820312 14.152344 21.207031 C 14.648438 21.574219 14.902344 21.722656 15.394531 21.9375 C 16.285156 22.324219 17.132812 22.324219 17.910156 21.933594 C 18.371094 21.703125 18.867188 21.515625 18.953125 21.535156 C 19.007812 21.550781 19.011719 21.539062 18.984375 21.46875 C 18.890625 21.214844 18.820312 20.507812 18.839844 20 C 18.875 19.101562 19.074219 18.433594 19.480469 17.867188 C 19.726562 17.515625 19.917969 17.363281 20.382812 17.136719 C 20.835938 16.914062 21.050781 16.777344 21.339844 16.523438 C 21.628906 16.265625 21.664062 16.273438 20.65625 16.367188 C 20.109375 16.414062 19.902344 16.378906 19.523438 16.183594 C 19.167969 15.996094 18.832031 15.683594 18.675781 15.390625 C 18.605469 15.257812 18.542969 15.15625 18.535156 15.164062 C 18.53125 15.171875 18.421875 15.308594 18.292969 15.46875 C 17.792969 16.097656 17.203125 16.398438 16.535156 16.355469 C 16.269531 16.339844 16.15625 16.3125 15.925781 16.199219 C 15.324219 15.914062 15.007812 15.597656 14.683594 14.957031 L 14.515625 14.628906 L 14.484375 13.867188 C 14.46875 13.449219 14.457031 12.09375 14.457031 10.855469 C 14.460938 8.777344 14.457031 8.597656 14.394531 8.5 C 14.332031 8.410156 14.324219 8.242188 14.308594 6.921875 C 14.300781 6.113281 14.273438 5.355469 14.253906 5.242188 C 14.230469 5.128906 14.152344 4.914062 14.078125 4.765625 C 13.796875 4.207031 13.277344 3.941406 12.710938 4.0625 Z M 13.539062 7.980469 C 13.6875 8.152344 13.667969 8.320312 13.480469 8.488281 C 13.300781 8.648438 13.152344 8.6875 12.777344 8.664062 C 12.484375 8.648438 12.386719 8.59375 12.277344 8.386719 C 12.234375 8.300781 12.230469 8.25 12.265625 8.144531 C 12.34375 7.902344 12.492188 7.851562 13.078125 7.863281 C 13.425781 7.871094 13.449219 7.875 13.539062 7.980469 Z M 13.539062 7.980469 "/>
<path style=" stroke:none;fill-rule:nonzero;fill:rgb(0%,0%,0%);fill-opacity:1;" d="M 16.269531 7.417969 C 15.789062 7.542969 15.355469 8.011719 15.230469 8.535156 C 15.1875 8.726562 15.183594 9.585938 15.210938 13.261719 C 15.222656 14.785156 15.222656 14.800781 15.601562 15.179688 C 15.734375 15.308594 15.917969 15.46875 16.011719 15.53125 C 16.175781 15.640625 16.207031 15.644531 16.617188 15.644531 C 17.011719 15.644531 17.070312 15.632812 17.296875 15.53125 C 17.5625 15.40625 17.839844 15.140625 18.03125 14.816406 L 18.144531 14.628906 L 18.144531 8.535156 L 18.015625 8.273438 C 17.851562 7.941406 17.511719 7.617188 17.203125 7.5 C 16.960938 7.410156 16.460938 7.367188 16.269531 7.417969 Z M 17.195312 10.386719 C 17.410156 10.625 17.304688 10.917969 16.96875 11.011719 C 16.746094 11.074219 16.417969 11.0625 16.265625 10.992188 C 16.132812 10.929688 15.976562 10.726562 15.976562 10.613281 C 15.976562 10.496094 16.152344 10.34375 16.347656 10.289062 C 16.460938 10.257812 16.65625 10.242188 16.8125 10.25 C 17.0625 10.261719 17.097656 10.277344 17.195312 10.386719 Z M 17.03125 13.105469 C 17.230469 13.285156 17.277344 13.457031 17.277344 14.015625 C 17.277344 14.507812 17.269531 14.539062 17.183594 14.636719 C 16.96875 14.867188 16.601562 14.945312 16.335938 14.808594 C 16.0625 14.667969 16.039062 14.617188 16.011719 14.089844 C 15.980469 13.441406 16.03125 13.28125 16.347656 13.078125 C 16.503906 12.976562 16.910156 12.996094 17.03125 13.105469 Z M 17.03125 13.105469 "/>
<path style=" stroke:none;fill-rule:nonzero;fill:rgb(0%,0%,0%);fill-opacity:1;" d="M 19.9375 7.4375 C 19.535156 7.566406 19.132812 7.96875 18.988281 8.378906 L 18.890625 8.648438 L 18.902344 11.613281 C 18.914062 14.820312 18.90625 14.691406 19.128906 15.074219 C 19.394531 15.53125 19.753906 15.769531 20.238281 15.808594 C 20.480469 15.828125 20.519531 15.820312 20.691406 15.71875 C 20.792969 15.65625 20.902344 15.597656 20.929688 15.585938 C 20.960938 15.570312 20.90625 15.519531 20.785156 15.457031 C 20.480469 15.289062 20.117188 14.964844 19.953125 14.710938 C 19.710938 14.332031 19.628906 14.015625 19.628906 13.4375 C 19.632812 12.976562 19.636719 12.9375 19.753906 12.695312 C 19.816406 12.554688 19.894531 12.386719 19.917969 12.320312 C 19.96875 12.195312 20.328125 11.851562 20.554688 11.71875 C 20.789062 11.582031 21.144531 11.476562 21.464844 11.453125 L 21.777344 11.425781 L 21.785156 10.097656 C 21.792969 9.355469 21.777344 8.675781 21.757812 8.554688 C 21.675781 8.09375 21.382812 7.703125 20.980469 7.515625 C 20.71875 7.390625 20.199219 7.351562 19.9375 7.4375 Z M 20.808594 10.25 C 21.003906 10.480469 20.875 10.808594 20.550781 10.898438 C 20.207031 10.992188 19.90625 10.914062 19.769531 10.691406 C 19.671875 10.535156 19.695312 10.429688 19.859375 10.277344 C 19.980469 10.164062 20.175781 10.117188 20.484375 10.132812 C 20.679688 10.140625 20.730469 10.160156 20.808594 10.25 Z M 20.808594 10.25 "/>
<path style=" stroke:none;fill-rule:nonzero;fill:rgb(0%,0%,0%);fill-opacity:1;" d="M 22.472656 12.113281 C 21.242188 12.246094 21.0625 12.292969 20.78125 12.578125 C 20.328125 13.027344 20.261719 13.925781 20.636719 14.421875 C 20.816406 14.65625 21.25 14.945312 21.511719 15.003906 C 21.726562 15.054688 21.773438 15.050781 23.289062 14.933594 L 23.589844 14.914062 L 24.148438 15.457031 C 25.414062 16.691406 25.6875 17 25.636719 17.128906 C 25.609375 17.203125 25.335938 17.304688 25.175781 17.304688 C 25.0625 17.304688 24.980469 17.25 24.621094 16.921875 C 24.386719 16.714844 24.066406 16.429688 23.90625 16.289062 C 23.746094 16.148438 23.574219 15.992188 23.53125 15.9375 C 23.484375 15.882812 23.40625 15.796875 23.363281 15.746094 L 23.277344 15.648438 L 22.910156 15.722656 L 22.539062 15.792969 L 22.539062 15.992188 C 22.542969 16.101562 22.554688 16.265625 22.574219 16.351562 L 22.605469 16.515625 L 22.367188 16.5625 C 22.042969 16.625 21.949219 16.679688 21.523438 17.0625 C 21.320312 17.246094 20.992188 17.515625 20.792969 17.660156 C 20.175781 18.117188 19.972656 18.449219 19.785156 19.296875 C 19.644531 19.933594 19.644531 20.742188 19.785156 21.011719 C 19.898438 21.230469 20.136719 21.429688 20.566406 21.660156 C 21.285156 22.046875 21.433594 22.085938 22.1875 22.085938 L 22.832031 22.085938 L 23.296875 21.882812 C 23.554688 21.773438 23.867188 21.621094 23.992188 21.546875 C 24.375 21.316406 24.992188 20.824219 25.488281 20.351562 C 25.746094 20.105469 26.160156 19.722656 26.40625 19.507812 C 27.101562 18.890625 27.839844 18.058594 27.996094 17.703125 C 28.179688 17.28125 28.28125 16.851562 28.28125 16.46875 C 28.28125 15.738281 28.152344 15.503906 27.265625 14.628906 C 26.40625 13.785156 25.9375 13.339844 25.605469 13.066406 C 25.457031 12.941406 25.207031 12.71875 25.050781 12.574219 C 24.863281 12.394531 24.671875 12.261719 24.464844 12.164062 C 24.0625 11.96875 23.847656 11.964844 22.472656 12.113281 Z M 23.34375 13.019531 C 23.363281 13.035156 23.382812 13.164062 23.390625 13.300781 C 23.40625 13.546875 23.402344 13.558594 23.273438 13.6875 C 23.109375 13.851562 22.972656 13.886719 22.304688 13.949219 C 21.679688 14.003906 21.53125 13.984375 21.351562 13.816406 C 21.175781 13.648438 21.144531 13.519531 21.238281 13.335938 C 21.363281 13.074219 21.460938 13.035156 22.019531 13.003906 C 22.640625 12.972656 23.304688 12.976562 23.34375 13.019531 Z M 23.34375 13.019531 "/>
<path style=" stroke:none;fill-rule:nonzero;fill:rgb(0%,0%,0%);fill-opacity:1;" d="M 19.027344 21.898438 C 18.972656 21.976562 18.820312 22.136719 18.6875 22.261719 C 18.488281 22.441406 18.367188 22.515625 18.035156 22.644531 C 17.8125 22.734375 17.519531 22.828125 17.386719 22.855469 C 17.074219 22.914062 16.476562 22.878906 16.113281 22.777344 C 15.757812 22.679688 15.003906 22.375 14.707031 22.207031 L 14.46875 22.074219 L 14.484375 23.1875 L 14.5 24.296875 L 14.351562 24.296875 C 14.035156 24.300781 13.695312 24.554688 13.59375 24.863281 C 13.53125 25.050781 13.625 25.3125 13.800781 25.445312 C 13.949219 25.554688 14.230469 25.640625 14.355469 25.609375 C 14.433594 25.589844 14.445312 25.605469 14.46875 25.792969 C 14.511719 26.164062 14.511719 26.171875 14.347656 26.171875 C 14.121094 26.171875 13.773438 26.410156 13.648438 26.648438 C 13.542969 26.847656 13.578125 27.011719 13.761719 27.203125 C 13.945312 27.394531 14.152344 27.472656 14.375 27.4375 L 14.511719 27.414062 L 14.511719 31.378906 C 14.511719 35.34375 14.511719 35.347656 14.59375 35.457031 C 14.636719 35.515625 14.734375 35.605469 14.804688 35.652344 L 14.929688 35.738281 L 19.546875 35.730469 C 24.09375 35.722656 24.160156 35.722656 24.261719 35.644531 C 24.320312 35.601562 24.402344 35.511719 24.445312 35.449219 C 24.523438 35.335938 24.523438 35.253906 24.550781 31.425781 C 24.566406 29.277344 24.578125 27.492188 24.578125 27.457031 C 24.578125 27.40625 24.625 27.386719 24.824219 27.375 C 25.019531 27.363281 25.097656 27.335938 25.214844 27.25 C 25.496094 27.03125 25.535156 26.722656 25.304688 26.460938 C 25.140625 26.277344 25.003906 26.210938 24.765625 26.210938 L 24.570312 26.210938 L 24.570312 25.585938 L 24.679688 25.585938 C 24.984375 25.585938 25.34375 25.394531 25.445312 25.175781 C 25.542969 24.972656 25.5 24.796875 25.304688 24.585938 C 25.140625 24.40625 24.972656 24.335938 24.71875 24.335938 L 24.570312 24.335938 L 24.5625 23.066406 L 24.550781 21.796875 L 24.140625 22.078125 C 23.554688 22.476562 23.335938 22.597656 22.984375 22.71875 C 22.722656 22.8125 22.609375 22.828125 22.246094 22.828125 C 21.871094 22.832031 21.761719 22.816406 21.367188 22.699219 C 20.859375 22.554688 20.722656 22.488281 20.332031 22.226562 C 19.949219 21.964844 19.84375 21.917969 19.558594 21.878906 C 19.417969 21.859375 19.269531 21.824219 19.226562 21.800781 C 19.121094 21.746094 19.136719 21.738281 19.027344 21.898438 Z M 19.796875 23.542969 C 19.828125 23.585938 19.84375 23.769531 19.84375 24.105469 C 19.84375 24.378906 19.859375 24.613281 19.878906 24.625 C 19.898438 24.636719 20.9375 24.65625 22.1875 24.667969 C 24.441406 24.6875 24.574219 24.695312 24.660156 24.820312 C 24.695312 24.871094 24.652344 25.355469 24.609375 25.402344 C 24.59375 25.417969 22.316406 25.433594 19.550781 25.429688 C 13.941406 25.429688 14.335938 25.449219 14.335938 25.164062 C 14.335938 25.085938 14.355469 24.957031 14.375 24.875 C 14.410156 24.75 14.433594 24.730469 14.566406 24.707031 C 14.652344 24.691406 15.515625 24.675781 16.492188 24.667969 C 17.464844 24.660156 18.457031 24.65625 18.691406 24.652344 L 19.125 24.648438 L 19.121094 24.136719 L 19.121094 23.625 L 19.234375 23.527344 C 19.335938 23.441406 19.375 23.429688 19.546875 23.453125 C 19.667969 23.464844 19.765625 23.5 19.796875 23.542969 Z M 24.617188 26.304688 C 24.667969 26.378906 24.652344 26.835938 24.589844 26.949219 C 24.539062 27.050781 24.515625 27.0625 24.210938 27.085938 C 24.03125 27.097656 22.480469 27.113281 20.761719 27.113281 C 19.042969 27.113281 16.953125 27.117188 16.117188 27.121094 C 14.339844 27.128906 14.449219 27.15625 14.421875 26.742188 C 14.410156 26.554688 14.421875 26.460938 14.464844 26.394531 L 14.523438 26.304688 L 16.429688 26.3125 C 17.480469 26.316406 18.824219 26.308594 19.414062 26.292969 C 21.296875 26.25 24.585938 26.257812 24.617188 26.304688 Z M 19.851562 27.617188 C 19.882812 27.910156 19.886719 29.039062 19.855469 29.722656 C 19.835938 30.1875 19.820312 30.296875 19.761719 30.355469 C 19.6875 30.429688 19.183594 30.601562 19.144531 30.566406 C 19.132812 30.550781 19.105469 30.203125 19.089844 29.792969 C 19.050781 28.980469 19.101562 27.859375 19.191406 27.589844 C 19.234375 27.449219 19.25 27.441406 19.433594 27.417969 C 19.8125 27.371094 19.820312 27.375 19.851562 27.617188 Z M 19.851562 27.617188 "/>
</g>
</svg>
